<svg width="408" height="430" viewBox="0 0 408 430" fill="none" xmlns="http://www.w3.org/2000/svg">
<g filter="url(#filter0_d_132_3)">
<rect x="42" y="31" width="326" height="349" rx="54" fill="#EB2D2D"/>
</g>
<path opacity="0.16" d="M43.5234 380V372.192L49.2744 370.974V333.611L43.5234 332.393V324.509H70.793C75.1855 324.509 78.9941 325.207 82.2188 326.604C85.4434 328 87.9316 329.993 89.6836 332.583C91.4355 335.147 92.3115 338.194 92.3115 341.724C92.3115 344.974 91.4229 347.995 89.6455 350.788C87.8936 353.581 85.4814 355.828 82.4092 357.529C79.3369 359.205 75.833 360.03 71.8975 360.005L62.6426 359.891V370.974L68.3936 372.192V380H43.5234ZM78.6387 380L71.1738 358.367L82.79 354.406L89.5312 370.897L94.7871 372.23V380H78.6387ZM62.6426 349.646H70.9453C73.5352 349.646 75.5283 349.049 76.9248 347.855C78.3213 346.637 79.0195 344.885 79.0195 342.6C79.0195 340.238 78.3086 338.347 76.8867 336.925C75.4648 335.478 73.4336 334.754 70.793 334.754H62.6426V349.646ZM114.935 388.303V380.647C111.608 380.317 108.638 379.441 106.022 378.02C103.407 376.598 101.351 374.592 99.8525 372.002C98.3799 369.387 97.6689 366.149 97.7197 362.29L97.7959 362.1H110.859C110.859 364.156 111.164 365.832 111.773 367.127C112.383 368.396 113.221 369.336 114.287 369.945C115.354 370.529 116.585 370.821 117.981 370.821C119.124 370.821 120.076 370.593 120.838 370.136C121.6 369.653 122.171 368.993 122.552 368.155C122.933 367.317 123.123 366.353 123.123 365.261C123.123 363.966 122.92 362.874 122.514 361.985C122.133 361.097 121.485 360.31 120.571 359.624C119.683 358.913 118.451 358.215 116.877 357.529C112.916 355.955 109.653 354.381 107.089 352.807C104.55 351.232 102.671 349.392 101.452 347.284C100.233 345.177 99.624 342.536 99.624 339.362C99.624 335.046 101.084 331.504 104.004 328.736C106.924 325.943 110.821 324.318 115.696 323.861V315.825H121.79V324.052C126.36 324.737 129.979 326.616 132.645 329.688C135.336 332.761 136.644 336.684 136.567 341.457L136.682 341.762H123.466C123.466 339.045 122.945 337.039 121.904 335.744C120.889 334.424 119.556 333.764 117.905 333.764C116.204 333.764 114.947 334.297 114.135 335.363C113.322 336.43 112.916 337.813 112.916 339.515C112.916 340.632 113.094 341.609 113.449 342.447C113.83 343.26 114.478 344.009 115.392 344.694C116.306 345.38 117.562 346.078 119.162 346.789C123.072 348.49 126.31 350.153 128.874 351.778C131.438 353.403 133.343 355.27 134.587 357.377C135.856 359.459 136.491 362.062 136.491 365.185C136.491 369.577 135.095 373.119 132.302 375.811C129.509 378.502 125.764 380.089 121.066 380.571V388.303H114.935Z" fill="white"/>
<path opacity="0.16" d="M17.5234 113V105.192L23.2744 103.974V66.6113L17.5234 65.3926V57.5088H44.793C49.1855 57.5088 52.9941 58.207 56.2188 59.6035C59.4434 61 61.9316 62.9932 63.6836 65.583C65.4355 68.1475 66.3115 71.1943 66.3115 74.7236C66.3115 77.9736 65.4229 80.9951 63.6455 83.7881C61.8936 86.5811 59.4814 88.8281 56.4092 90.5293C53.3369 92.2051 49.833 93.0303 45.8975 93.0049L36.6426 92.8906V103.974L42.3936 105.192V113H17.5234ZM52.6387 113L45.1738 91.3672L56.79 87.4062L63.5312 103.897L68.7871 105.23V113H52.6387ZM36.6426 82.6455H44.9453C47.5352 82.6455 49.5283 82.0488 50.9248 80.8555C52.3213 79.6367 53.0195 77.8848 53.0195 75.5996C53.0195 73.2383 52.3086 71.3467 50.8867 69.9248C49.4648 68.4775 47.4336 67.7539 44.793 67.7539H36.6426V82.6455ZM88.9346 121.303V113.647C85.6084 113.317 82.6377 112.441 80.0225 111.02C77.4072 109.598 75.3506 107.592 73.8525 105.002C72.3799 102.387 71.6689 99.1494 71.7197 95.29L71.7959 95.0996H84.8594C84.8594 97.1562 85.1641 98.832 85.7734 100.127C86.3828 101.396 87.2207 102.336 88.2871 102.945C89.3535 103.529 90.585 103.821 91.9814 103.821C93.124 103.821 94.0762 103.593 94.8379 103.136C95.5996 102.653 96.1709 101.993 96.5518 101.155C96.9326 100.317 97.123 99.3525 97.123 98.2607C97.123 96.9658 96.9199 95.874 96.5137 94.9854C96.1328 94.0967 95.4854 93.3096 94.5713 92.624C93.6826 91.9131 92.4512 91.2148 90.877 90.5293C86.916 88.9551 83.6533 87.3809 81.0889 85.8066C78.5498 84.2324 76.6709 82.3916 75.4521 80.2842C74.2334 78.1768 73.624 75.5361 73.624 72.3623C73.624 68.0459 75.084 64.5039 78.0039 61.7363C80.9238 58.9434 84.8213 57.3184 89.6963 56.8613V48.8252H95.79V57.0518C100.36 57.7373 103.979 59.6162 106.645 62.6885C109.336 65.7607 110.644 69.6836 110.567 74.457L110.682 74.7617H97.4658C97.4658 72.0449 96.9453 70.0391 95.9043 68.7441C94.8887 67.4238 93.5557 66.7637 91.9053 66.7637C90.2041 66.7637 88.9473 67.2969 88.1348 68.3633C87.3223 69.4297 86.916 70.8135 86.916 72.5146C86.916 73.6318 87.0938 74.6094 87.4492 75.4473C87.8301 76.2598 88.4775 77.0088 89.3916 77.6943C90.3057 78.3799 91.5625 79.0781 93.1621 79.7891C97.0723 81.4902 100.31 83.1533 102.874 84.7783C105.438 86.4033 107.343 88.2695 108.587 90.377C109.856 92.459 110.491 95.0615 110.491 98.1846C110.491 102.577 109.095 106.119 106.302 108.811C103.509 111.502 99.7637 113.089 95.0664 113.571V121.303H88.9346Z" fill="white"/>
<path opacity="0.16" d="M264.523 247V239.192L270.274 237.974V200.611L264.523 199.393V191.509H291.793C296.186 191.509 299.994 192.207 303.219 193.604C306.443 195 308.932 196.993 310.684 199.583C312.436 202.147 313.312 205.194 313.312 208.724C313.312 211.974 312.423 214.995 310.646 217.788C308.894 220.581 306.481 222.828 303.409 224.529C300.337 226.205 296.833 227.03 292.897 227.005L283.643 226.891V237.974L289.394 239.192V247H264.523ZM299.639 247L292.174 225.367L303.79 221.406L310.531 237.897L315.787 239.23V247H299.639ZM283.643 216.646H291.945C294.535 216.646 296.528 216.049 297.925 214.855C299.321 213.637 300.02 211.885 300.02 209.6C300.02 207.238 299.309 205.347 297.887 203.925C296.465 202.478 294.434 201.754 291.793 201.754H283.643V216.646ZM335.935 255.303V247.647C332.608 247.317 329.638 246.441 327.022 245.02C324.407 243.598 322.351 241.592 320.853 239.002C319.38 236.387 318.669 233.149 318.72 229.29L318.796 229.1H331.859C331.859 231.156 332.164 232.832 332.773 234.127C333.383 235.396 334.221 236.336 335.287 236.945C336.354 237.529 337.585 237.821 338.981 237.821C340.124 237.821 341.076 237.593 341.838 237.136C342.6 236.653 343.171 235.993 343.552 235.155C343.933 234.317 344.123 233.353 344.123 232.261C344.123 230.966 343.92 229.874 343.514 228.985C343.133 228.097 342.485 227.31 341.571 226.624C340.683 225.913 339.451 225.215 337.877 224.529C333.916 222.955 330.653 221.381 328.089 219.807C325.55 218.232 323.671 216.392 322.452 214.284C321.233 212.177 320.624 209.536 320.624 206.362C320.624 202.046 322.084 198.504 325.004 195.736C327.924 192.943 331.821 191.318 336.696 190.861V182.825H342.79V191.052C347.36 191.737 350.979 193.616 353.645 196.688C356.336 199.761 357.644 203.684 357.567 208.457L357.682 208.762H344.466C344.466 206.045 343.945 204.039 342.904 202.744C341.889 201.424 340.556 200.764 338.905 200.764C337.204 200.764 335.947 201.297 335.135 202.363C334.322 203.43 333.916 204.813 333.916 206.515C333.916 207.632 334.094 208.609 334.449 209.447C334.83 210.26 335.478 211.009 336.392 211.694C337.306 212.38 338.562 213.078 340.162 213.789C344.072 215.49 347.31 217.153 349.874 218.778C352.438 220.403 354.343 222.27 355.587 224.377C356.856 226.459 357.491 229.062 357.491 232.185C357.491 236.577 356.095 240.119 353.302 242.811C350.509 245.502 346.764 247.089 342.066 247.571V255.303H335.935Z" fill="white"/>
<path opacity="0.16" d="M176.109 89V78.1895L184.072 76.502V24.7695L176.109 23.082V12.166H213.867C219.949 12.166 225.223 13.1328 229.688 15.0664C234.152 17 237.598 19.7598 240.023 23.3457C242.449 26.8965 243.662 31.1152 243.662 36.002C243.662 40.502 242.432 44.6855 239.971 48.5527C237.545 52.4199 234.205 55.5312 229.951 57.8867C225.697 60.207 220.846 61.3496 215.396 61.3145L202.582 61.1562V76.502L210.545 78.1895V89H176.109ZM224.73 89L214.395 59.0469L230.479 53.5625L239.812 76.3965L247.09 78.2422V89H224.73ZM202.582 46.9707H214.078C217.664 46.9707 220.424 46.1445 222.357 44.4922C224.291 42.8047 225.258 40.3789 225.258 37.2148C225.258 33.9453 224.273 31.3262 222.305 29.3574C220.336 27.3535 217.523 26.3516 213.867 26.3516H202.582V46.9707ZM274.986 100.496V89.8965C270.381 89.4395 266.268 88.2266 262.646 86.2578C259.025 84.2891 256.178 81.5117 254.104 77.9258C252.064 74.3047 251.08 69.8223 251.15 64.4785L251.256 64.2148H269.344C269.344 67.0625 269.766 69.3828 270.609 71.1758C271.453 72.9336 272.613 74.2344 274.09 75.0781C275.566 75.8867 277.271 76.291 279.205 76.291C280.787 76.291 282.105 75.9746 283.16 75.3418C284.215 74.6738 285.006 73.7598 285.533 72.5996C286.061 71.4395 286.324 70.1035 286.324 68.5918C286.324 66.7988 286.043 65.2871 285.48 64.0566C284.953 62.8262 284.057 61.7363 282.791 60.7871C281.561 59.8027 279.855 58.8359 277.676 57.8867C272.191 55.707 267.674 53.5273 264.123 51.3477C260.607 49.168 258.006 46.6191 256.318 43.7012C254.631 40.7832 253.787 37.127 253.787 32.7324C253.787 26.7559 255.809 21.8516 259.852 18.0195C263.895 14.1523 269.291 11.9023 276.041 11.2695V0.142578H284.479V11.5332C290.807 12.4824 295.816 15.084 299.508 19.3379C303.234 23.5918 305.045 29.0234 304.939 35.6328L305.098 36.0547H286.799C286.799 32.293 286.078 29.5156 284.637 27.7227C283.23 25.8945 281.385 24.9805 279.1 24.9805C276.744 24.9805 275.004 25.7188 273.879 27.1953C272.754 28.6719 272.191 30.5879 272.191 32.9434C272.191 34.4902 272.438 35.8438 272.93 37.0039C273.457 38.1289 274.354 39.166 275.619 40.1152C276.885 41.0645 278.625 42.0312 280.84 43.0156C286.254 45.3711 290.736 47.6738 294.287 49.9238C297.838 52.1738 300.475 54.7578 302.197 57.6758C303.955 60.5586 304.834 64.1621 304.834 68.4863C304.834 74.5684 302.9 79.4727 299.033 83.1992C295.166 86.9258 289.98 89.123 283.477 89.791V100.496H274.986Z" fill="white"/>
<path d="M212.903 306.263L212.769 306.38L212.65 306.512C205.038 314.965 194.67 321.338 181.936 324.041L126.414 335.829C87.7434 344.039 52.6104 311.701 57.6766 272.603L64.9549 216.433C66.916 201.298 74.2047 188.987 84.3156 180.356L84.7236 180.008L84.9857 179.54C86.704 176.47 88.9697 173.632 91.778 171.173L222.882 56.371C236.06 44.832 256.094 46.1285 267.629 59.2507L345.632 147.991C357.164 161.109 355.845 181.095 342.671 192.631L212.903 306.263Z" stroke="white" stroke-width="6"/>
<g filter="url(#filter1_d_132_3)">
<path d="M102.477 240.055L99.2553 236.356L101.459 233.422L86.0426 215.723L82.8335 217.503L79.5963 213.786L82.3026 211.429L91.9908 202.99L113.412 214.761L113.52 214.666L104.62 191.99L116.87 181.32L120.107 185.036L117.886 187.987L133.302 205.685L136.529 203.89L139.75 207.588L127.987 217.834L124.766 214.136L127.096 211.091L124.11 207.663L113.49 195.179L113.366 195.255L123.423 221.81L118.443 226.147L93.6161 212.87L93.5055 212.998L103.744 223.879L107.484 228.173L111.036 226.094L114.258 229.793L102.477 240.055ZM140.833 206.645L137.611 202.947L139.833 199.997L124.417 182.298L121.19 184.094L117.953 180.377L138.935 162.101L145.535 169.678L140.754 173.843L138.252 171.262L131.252 177.359L135.951 182.754L144.34 175.447L148.567 180.3L140.178 187.607L145.631 193.867L152.974 187.472L150.651 184.513L155.378 180.396L162.104 188.118L140.833 206.645ZM164.467 186.059L161.246 182.361L163.467 179.411L148.051 161.712L144.824 163.507L141.587 159.791L144.311 157.418L150.644 151.902L153.963 149.011L157.201 152.727L154.384 156.196L169.297 173.317L175.539 167.88L172.494 164.092L177.329 159.881L184.746 168.396L164.467 186.059ZM186.009 167.296L182.787 163.598L185.009 160.647L169.593 142.949L166.366 144.744L163.128 141.028L174.909 130.766L178.147 134.483L175.925 137.433L181.708 144.072L191.27 135.743L185.487 129.104L182.26 130.9L179.023 127.183L181.747 124.81L188.062 119.31L190.786 116.937L194.023 120.654L191.802 123.604L207.218 141.303L210.445 139.507L213.666 143.206L201.903 153.452L198.682 149.753L200.903 146.803L195.497 140.597L185.935 148.925L191.341 155.132L194.568 153.336L197.79 157.034L186.009 167.296ZM228.321 131.107C226.505 132.689 224.545 133.815 222.442 134.484C220.339 135.13 218.205 135.339 216.039 135.111C213.873 134.882 211.781 134.229 209.764 133.152C207.748 132.052 205.913 130.552 204.257 128.651L203.896 128.236C202.251 126.348 201.027 124.336 200.225 122.201C199.435 120.055 199.069 117.898 199.128 115.732C199.199 113.555 199.699 111.469 200.627 109.476C201.556 107.482 202.929 105.694 204.745 104.112C206.525 102.562 208.472 101.458 210.586 100.801C212.7 100.144 214.853 99.9196 217.043 100.127C219.245 100.324 221.367 100.951 223.408 102.007C225.45 103.064 227.293 104.536 228.937 106.425L229.299 106.839C230.954 108.74 232.17 110.78 232.947 112.958C233.713 115.125 234.049 117.308 233.954 119.506C233.859 121.704 233.341 123.805 232.4 125.809C231.449 127.801 230.089 129.567 228.321 131.107ZM224.141 126.308C225.464 125.156 226.286 123.816 226.606 122.289C226.926 120.763 226.777 119.147 226.16 117.442C225.543 115.738 224.49 114.032 223.002 112.324L222.61 111.873C221.153 110.201 219.623 108.954 218.017 108.131C216.414 107.285 214.834 106.916 213.278 107.024C211.721 107.131 210.276 107.767 208.941 108.93C207.533 110.155 206.683 111.51 206.388 112.993C206.106 114.466 206.298 116.022 206.965 117.662C207.632 119.303 208.709 120.977 210.197 122.684L210.59 123.135C212.078 124.843 213.598 126.152 215.152 127.062C216.708 127.949 218.246 128.355 219.766 128.279C221.288 128.18 222.746 127.523 224.141 126.308ZM242.298 118.267L239.077 114.568L241.298 111.618L225.882 93.9192L222.655 95.7148L219.402 91.9802L232.32 80.7285C234.401 78.9161 236.493 77.6754 238.597 77.0064C240.7 76.3375 242.701 76.255 244.6 76.7589C246.488 77.2508 248.16 78.3327 249.616 80.0046C250.957 81.5441 251.783 83.3421 252.093 85.3984C252.416 87.4444 252.2 89.5041 251.447 91.5776C250.683 93.639 249.364 95.4757 247.489 97.0875L243.058 100.852L247.631 106.102L250.858 104.306L254.079 108.005L242.298 118.267ZM258.933 103.778L246.47 96.6103L250.339 89.941L260.337 94.9715L263.376 93.4343L266.582 97.1148L258.933 103.778ZM238.831 95.9988L242.764 92.5731C243.99 91.5045 244.688 90.3994 244.858 89.2579C245.016 88.1044 244.624 86.9864 243.681 85.9039C242.707 84.7853 241.59 84.1826 240.329 84.0957C239.059 83.9968 237.798 84.4922 236.547 85.5817L232.686 88.9446L238.831 95.9988ZM135.461 277.632L132.24 273.933L134.461 270.983L119.045 253.284L115.818 255.08L112.581 251.363L115.305 248.991L125.354 240.238C127.447 238.415 129.583 237.2 131.761 236.592C133.94 235.985 136.015 235.975 137.987 236.564C139.96 237.129 141.701 238.278 143.21 240.01C144.719 241.742 145.618 243.624 145.907 245.656C146.209 247.678 145.904 249.721 144.993 251.783C144.082 253.846 142.58 255.789 140.487 257.611L136.771 260.849L140.794 265.467L144.021 263.672L147.242 267.37L135.461 277.632ZM132.544 255.996L136.26 252.758C137.547 251.637 138.218 250.44 138.271 249.166C138.327 247.87 137.873 246.668 136.909 245.562C135.914 244.419 134.76 243.774 133.447 243.627C132.147 243.47 130.853 243.952 129.566 245.073L125.849 248.31L132.544 255.996ZM159.673 256.543L156.452 252.844L158.673 249.894L143.257 232.195L140.03 233.991L136.777 230.256L149.695 219.005C151.775 217.192 153.868 215.952 155.971 215.283C158.075 214.614 160.076 214.531 161.975 215.035C163.863 215.527 165.535 216.609 166.991 218.281C168.332 219.82 169.158 221.618 169.468 223.675C169.791 225.721 169.575 227.78 168.822 229.854C168.058 231.915 166.739 233.752 164.864 235.364L160.433 239.128L165.005 244.378L168.233 242.583L171.454 246.281L159.673 256.543ZM176.307 242.054L163.845 234.887L167.714 228.217L177.711 233.248L180.751 231.711L183.957 235.391L176.307 242.054ZM156.205 234.275L160.138 230.849C161.365 229.781 162.063 228.676 162.232 227.534C162.391 226.381 161.999 225.263 161.056 224.18C160.082 223.062 158.964 222.459 157.704 222.372C156.433 222.273 155.173 222.768 153.922 223.858L150.061 227.221L156.205 234.275ZM185.328 234.197L182.107 230.498L184.328 227.548L168.912 209.849L165.685 211.645L162.448 207.928L183.43 189.652L190.03 197.23L185.249 201.394L182.747 198.814L175.747 204.911L180.446 210.305L188.835 202.998L193.063 207.851L184.673 215.158L190.126 221.419L197.469 215.023L195.146 212.065L199.873 207.948L206.599 215.669L185.328 234.197ZM222.192 202.754C219.69 204.933 217.019 206.371 214.179 207.068C211.338 207.766 208.526 207.645 205.741 206.707C202.947 205.757 200.355 203.911 197.966 201.168L196.913 199.96C194.713 197.434 193.281 194.758 192.617 191.931C191.954 189.081 192.096 186.281 193.043 183.532C193.992 180.759 195.777 178.231 198.399 175.948C200.227 174.355 202.18 173.088 204.257 172.146C206.336 171.181 208.599 170.67 211.045 170.612L216.937 177.378L212.337 181.385L208.327 178.056C207.677 178.136 207.034 178.273 206.399 178.466C205.776 178.649 205.159 178.912 204.547 179.254C203.948 179.586 203.354 180.009 202.764 180.522C201.429 181.685 200.54 183.02 200.097 184.527C199.654 186.034 199.685 187.636 200.19 189.332C200.696 191.006 201.698 192.704 203.196 194.424L204.281 195.668C205.685 197.28 207.203 198.453 208.837 199.188C210.461 199.91 212.076 200.174 213.684 199.98C215.303 199.775 216.78 199.091 218.116 197.928C218.825 197.31 219.484 196.609 220.092 195.826C220.689 195.03 221.221 194.208 221.687 193.358L219.081 189.091L223.699 185.068L229.467 191.69C229.049 193.323 228.264 195.117 227.111 197.073C225.949 199.016 224.309 200.91 222.192 202.754ZM226.352 213.504L223.224 210.168C223.862 209.612 224.272 209.075 224.454 208.557C224.637 208.038 224.54 207.562 224.163 207.129C223.744 206.648 223.24 206.495 222.651 206.669C222.075 206.832 221.367 207.259 220.528 207.947L218.728 204.787L223.455 200.67L224.28 201.982C225.213 201.402 226.161 201.105 227.123 201.092C228.095 201.092 228.985 201.554 229.791 202.48C230.996 203.864 231.31 205.536 230.734 207.497C230.17 209.448 228.709 211.45 226.352 213.504ZM246.332 181.728C244.515 183.309 242.555 184.435 240.452 185.104C238.35 185.75 236.215 185.959 234.049 185.731C231.883 185.502 229.791 184.85 227.774 183.772C225.758 182.672 223.923 181.172 222.268 179.272L221.906 178.857C220.261 176.968 219.038 174.956 218.235 172.821C217.445 170.675 217.079 168.519 217.138 166.352C217.209 164.175 217.709 162.09 218.638 160.096C219.566 158.103 220.939 156.315 222.755 154.733C224.535 153.182 226.482 152.079 228.596 151.422C230.711 150.765 232.863 150.54 235.053 150.747C237.255 150.945 239.377 151.571 241.419 152.628C243.46 153.684 245.303 155.157 246.948 157.045L247.309 157.46C248.964 159.36 250.18 161.4 250.957 163.579C251.724 165.746 252.059 167.928 251.964 170.126C251.869 172.324 251.351 174.425 250.411 176.429C249.459 178.421 248.1 180.188 246.332 181.728ZM242.151 176.929C243.474 175.776 244.296 174.437 244.616 172.91C244.936 171.383 244.787 169.767 244.17 168.063C243.553 166.358 242.5 164.652 241.013 162.944L240.62 162.493C239.164 160.821 237.633 159.574 236.028 158.751C234.424 157.906 232.844 157.537 231.288 157.644C229.732 157.752 228.286 158.387 226.951 159.55C225.544 160.776 224.693 162.13 224.398 163.614C224.116 165.086 224.308 166.643 224.975 168.283C225.642 169.923 226.72 171.597 228.207 173.305L228.6 173.756C230.088 175.464 231.609 176.773 233.162 177.682C234.718 178.57 236.256 178.975 237.776 178.899C239.298 178.801 240.756 178.144 242.151 176.929ZM262.323 150.728L247.567 133.787L253.9 128.271L268.656 145.212L262.323 150.728ZM270.448 160.055L265.922 154.859L272.254 149.344L276.78 154.54L270.448 160.055ZM271.741 142.525L256.985 125.584L263.318 120.068L278.074 137.009L271.741 142.525ZM279.865 151.852L275.34 146.656L281.672 141.141L286.198 146.337L279.865 151.852ZM281.159 134.322L266.403 117.381L272.735 111.865L287.491 128.806L281.159 134.322ZM289.283 143.649L284.757 138.453L291.09 132.938L295.616 138.134L289.283 143.649Z" fill="white"/>
</g>
<g filter="url(#filter2_d_132_3)">
<path d="M164.867 305.48L163.207 303.635L164.79 301.539L153.109 288.553L150.847 289.894L149.177 288.037L151.093 286.313L156.484 281.464C158.041 280.063 159.734 279.205 161.561 278.891C163.395 278.57 165.219 278.758 167.03 279.454C168.842 280.151 170.495 281.33 171.989 282.991L172.302 283.338C173.774 284.976 174.773 286.728 175.298 288.597C175.816 290.458 175.826 292.284 175.328 294.075C174.831 295.852 173.808 297.437 172.258 298.831L164.867 305.48ZM167.712 298.716L170.012 296.647C171.034 295.727 171.66 294.672 171.891 293.483C172.122 292.278 172.009 291.036 171.551 289.757C171.087 288.469 170.327 287.239 169.271 286.065L168.947 285.705C167.863 284.5 166.712 283.606 165.495 283.024C164.271 282.435 163.055 282.199 161.847 282.318C160.647 282.429 159.536 282.945 158.514 283.865L156.214 285.934L167.712 298.716ZM180.692 291.244L179.032 289.399L180.141 288.077L172.045 267.465L174.98 264.825L194.552 275.113L195.983 274.151L197.643 275.995L192.096 280.985L190.437 279.14L191.478 277.792L188.088 275.878L181.595 281.719L183.116 285.314L184.579 284.41L186.238 286.255L180.692 291.244ZM180.306 278.696L185.229 274.267L177.157 269.846L176.581 269.519L176.509 269.584L176.783 270.226L180.306 278.696ZM205.142 269.249L203.482 267.405L205.064 265.332L193.35 252.31L191.122 253.664L189.452 251.807L191.356 250.094L197.634 244.447C198.935 243.276 200.254 242.501 201.59 242.123C202.934 241.738 204.22 241.73 205.448 242.099C206.669 242.46 207.768 243.184 208.745 244.27C209.722 245.356 210.329 246.529 210.567 247.789C210.797 249.041 210.646 250.311 210.114 251.599C209.59 252.88 208.677 254.105 207.375 255.276L204.117 258.208L208.083 262.616L210.311 261.262L211.97 263.107L205.142 269.249ZM202.016 255.872L205.274 252.94C206.344 251.978 206.888 250.968 206.906 249.912C206.924 248.856 206.538 247.888 205.747 247.01C204.943 246.115 204.007 245.613 202.94 245.503C201.874 245.394 200.805 245.82 199.735 246.783L196.477 249.714L202.016 255.872ZM217.972 257.708L216.312 255.863L217.421 254.541L209.326 233.929L212.26 231.289L231.832 241.577L233.263 240.614L234.923 242.459L229.376 247.449L227.717 245.604L228.758 244.256L225.368 242.342L218.875 248.183L220.396 251.777L221.859 250.874L223.518 252.718L217.972 257.708ZM217.586 245.16L222.509 240.73L214.437 236.31L213.861 235.983L213.789 236.048L214.063 236.69L217.586 245.16ZM236.36 241.166L234.701 239.321L236.282 237.248L224.568 224.227L222.34 225.581L220.67 223.724L228.732 216.472C230.042 215.293 231.343 214.491 232.636 214.065C233.922 213.631 235.146 213.57 236.308 213.883C237.471 214.195 238.53 214.883 239.485 215.945C240.405 216.967 240.962 218.077 241.158 219.273C241.361 220.463 241.218 221.661 240.728 222.868C240.239 224.059 239.419 225.187 238.267 226.252L234.754 229.477L239.301 234.533L241.529 233.179L243.189 235.024L236.36 241.166ZM247.705 230.961L237.155 225.931L239.561 222.92L248.089 226.714L249.714 225.773L251.395 227.642L247.705 230.961ZM232.641 227.13L235.648 224.425C236.782 223.404 237.416 222.423 237.55 221.479C237.676 220.527 237.344 219.612 236.554 218.733C235.785 217.879 234.911 217.437 233.931 217.408C232.944 217.371 231.912 217.838 230.834 218.808L227.695 221.631L232.641 227.13ZM252.952 226.241L251.292 224.396L252.401 223.074L244.306 202.462L247.24 199.822L266.812 210.11L268.243 209.147L269.903 210.992L264.356 215.982L262.697 214.137L263.738 212.789L260.348 210.875L253.855 216.716L255.376 220.31L256.839 219.407L258.499 221.251L252.952 226.241ZM252.566 213.693L257.489 209.263L249.417 204.843L248.841 204.516L248.769 204.581L249.043 205.223L252.566 213.693ZM271.34 209.699L269.681 207.854L271.262 205.781L259.548 192.76L257.32 194.114L255.65 192.257L262.466 186.125L264.137 187.982L262.567 190.044L274.281 203.066L276.497 201.723L278.157 203.567L271.34 209.699ZM255.961 189.398L255.342 184.06L258.636 181.096L258.725 181.147L258.321 187.275L256.057 189.312L255.961 189.398ZM279.75 202.134L278.091 200.289L279.672 198.216L267.958 185.195L265.73 186.549L264.06 184.692L265.964 182.979L271.715 177.806C273.671 176.046 275.556 175.073 277.368 174.887C279.182 174.686 280.8 175.377 282.222 176.958C282.933 177.749 283.345 178.664 283.457 179.705C283.563 180.737 283.348 181.768 282.815 182.797C283.654 182.316 284.493 182.06 285.331 182.029C286.17 181.997 286.971 182.157 287.736 182.509C288.502 182.847 289.19 183.355 289.801 184.033C291.273 185.671 291.855 187.401 291.546 189.226C291.237 191.035 290.124 192.802 288.208 194.526L279.75 202.134ZM282.583 195.381L286.117 192.202C287.107 191.311 287.661 190.401 287.779 189.472C287.897 188.527 287.565 187.62 286.782 186.749C286.229 186.134 285.658 185.701 285.071 185.449C284.483 185.197 283.881 185.139 283.266 185.274C282.65 185.409 282.023 185.763 281.384 186.338L277.55 189.787L282.583 195.381ZM275.6 187.618L278.667 184.86C279.561 184.055 280.07 183.207 280.193 182.316C280.316 181.425 280.029 180.592 279.333 179.817C278.549 178.947 277.7 178.548 276.783 178.622C275.859 178.687 274.87 179.194 273.816 180.142L271.085 182.599L275.6 187.618ZM295.599 187.877L293.939 186.032L295.048 184.71L286.952 164.098L289.887 161.458L309.459 171.746L310.89 170.784L312.55 172.628L307.003 177.618L305.344 175.773L306.385 174.425L302.995 172.511L296.502 178.352L298.023 181.947L299.486 181.043L301.145 182.887L295.599 187.877ZM295.213 175.329L300.136 170.9L292.064 166.479L291.488 166.152L291.416 166.217L291.69 166.859L295.213 175.329Z" fill="white"/>
</g>
<path d="M110 301C110 306.375 105.229 311 99 311C92.7711 311 88 306.375 88 301C88 295.625 92.7711 291 99 291C105.229 291 110 295.625 110 301Z" stroke="white" stroke-width="4"/>
<defs>
<filter id="filter0_d_132_3" x="2" y="1" width="406" height="429" filterUnits="userSpaceOnUse" color-interpolation-filters="sRGB">
<feFlood flood-opacity="0" result="BackgroundImageFix"/>
<feColorMatrix in="SourceAlpha" type="matrix" values="0 0 0 0 0 0 0 0 0 0 0 0 0 0 0 0 0 0 127 0" result="hardAlpha"/>
<feOffset dy="10"/>
<feGaussianBlur stdDeviation="20"/>
<feComposite in2="hardAlpha" operator="out"/>
<feColorMatrix type="matrix" values="0 0 0 0 0 0 0 0 0 0 0 0 0 0 0 0 0 0 0.5 0"/>
<feBlend mode="normal" in2="BackgroundImageFix" result="effect1_dropShadow_132_3"/>
<feBlend mode="normal" in="SourceGraphic" in2="effect1_dropShadow_132_3" result="shape"/>
</filter>
<filter id="filter1_d_132_3" x="79.2663" y="69.4675" width="244.605" height="229.842" filterUnits="userSpaceOnUse" color-interpolation-filters="sRGB">
<feFlood flood-opacity="0" result="BackgroundImageFix"/>
<feColorMatrix in="SourceAlpha" type="matrix" values="0 0 0 0 0 0 0 0 0 0 0 0 0 0 0 0 0 0 127 0" result="hardAlpha"/>
<feOffset dx="10" dy="6"/>
<feGaussianBlur stdDeviation="3.5"/>
<feComposite in2="hardAlpha" operator="out"/>
<feColorMatrix type="matrix" values="0 0 0 0 0 0 0 0 0 0 0 0 0 0 0 0 0 0 0.25 0"/>
<feBlend mode="normal" in2="BackgroundImageFix" result="effect1_dropShadow_132_3"/>
<feBlend mode="normal" in="SourceGraphic" in2="effect1_dropShadow_132_3" result="shape"/>
</filter>
<filter id="filter2_d_132_3" x="144.963" y="148.502" width="184.587" height="168.977" filterUnits="userSpaceOnUse" color-interpolation-filters="sRGB">
<feFlood flood-opacity="0" result="BackgroundImageFix"/>
<feColorMatrix in="SourceAlpha" type="matrix" values="0 0 0 0 0 0 0 0 0 0 0 0 0 0 0 0 0 0 127 0" result="hardAlpha"/>
<feOffset dx="10" dy="5"/>
<feGaussianBlur stdDeviation="3.5"/>
<feComposite in2="hardAlpha" operator="out"/>
<feColorMatrix type="matrix" values="0 0 0 0 0 0 0 0 0 0 0 0 0 0 0 0 0 0 0.25 0"/>
<feBlend mode="normal" in2="BackgroundImageFix" result="effect1_dropShadow_132_3"/>
<feBlend mode="normal" in="SourceGraphic" in2="effect1_dropShadow_132_3" result="shape"/>
</filter>
</defs>
</svg>
