<svg width="406" height="429" viewBox="0 0 406 429" fill="none" xmlns="http://www.w3.org/2000/svg">
<g filter="url(#filter0_d_132_4)">
<rect x="40" y="30" width="326" height="349" rx="54" fill="#EB2D2D"/>
</g>
<g filter="url(#filter1_d_132_4)">
<path d="M72.957 168V163.095L76.5698 162.33V138.858L72.957 138.093V133.164H76.5698H89.8965C92.6719 133.164 95.0804 133.651 97.1221 134.624C99.1637 135.597 100.735 136.952 101.835 138.691C102.952 140.414 103.51 142.423 103.51 144.72C103.51 147.017 102.952 149.027 101.835 150.75C100.735 152.472 99.1637 153.812 97.1221 154.769C95.0804 155.726 92.6719 156.205 89.8965 156.205H84.9678V162.33L88.5806 163.095V168H72.957ZM84.9678 149.769H89.8965C91.6032 149.769 92.8952 149.306 93.7725 148.381C94.6657 147.44 95.1123 146.236 95.1123 144.768C95.1123 143.253 94.6657 142.009 93.7725 141.036C92.8952 140.063 91.6032 139.576 89.8965 139.576H84.9678V149.769ZM121.742 168.502C119.333 168.502 117.116 168.064 115.09 167.187C113.081 166.293 111.334 165.049 109.851 163.454C108.367 161.859 107.219 159.993 106.405 157.855C105.608 155.702 105.209 153.365 105.209 150.845V150.295C105.209 147.791 105.608 145.47 106.405 143.333C107.219 141.195 108.359 139.329 109.827 137.734C111.31 136.139 113.057 134.895 115.066 134.001C117.076 133.108 119.285 132.662 121.694 132.662C124.055 132.662 126.248 133.108 128.273 134.001C130.299 134.895 132.07 136.139 133.585 137.734C135.116 139.329 136.305 141.195 137.15 143.333C137.995 145.47 138.418 147.791 138.418 150.295V150.845C138.418 153.365 137.995 155.702 137.15 157.855C136.305 159.993 135.124 161.859 133.609 163.454C132.094 165.049 130.323 166.293 128.297 167.187C126.272 168.064 124.086 168.502 121.742 168.502ZM121.742 162.138C123.496 162.138 124.996 161.668 126.24 160.727C127.484 159.785 128.433 158.47 129.087 156.779C129.741 155.088 130.068 153.11 130.068 150.845V150.247C130.068 148.03 129.733 146.084 129.063 144.409C128.409 142.718 127.46 141.403 126.216 140.461C124.972 139.52 123.464 139.05 121.694 139.05C119.828 139.05 118.296 139.512 117.1 140.438C115.92 141.363 115.042 142.663 114.468 144.337C113.894 146.012 113.607 147.982 113.607 150.247V150.845C113.607 153.11 113.894 155.096 114.468 156.803C115.058 158.493 115.952 159.809 117.148 160.75C118.36 161.676 119.891 162.138 121.742 162.138ZM140.715 168V163.095L144.328 162.33V138.858L140.715 138.093V133.164H144.328H157.654C160.43 133.164 162.838 133.651 164.88 134.624C166.922 135.597 168.493 136.952 169.593 138.691C170.71 140.414 171.268 142.423 171.268 144.72C171.268 147.017 170.71 149.027 169.593 150.75C168.493 152.472 166.922 153.812 164.88 154.769C162.838 155.726 160.43 156.205 157.654 156.205H152.726V162.33L156.338 163.095V168H140.715ZM152.726 149.769H157.654C159.361 149.769 160.653 149.306 161.53 148.381C162.424 147.44 162.87 146.236 162.87 144.768C162.87 143.253 162.424 142.009 161.53 141.036C160.653 140.063 159.361 139.576 157.654 139.576H152.726V149.769ZM190.744 168.502C187.745 168.502 185.129 168.024 182.896 167.067C180.679 166.094 178.964 164.674 177.752 162.808C176.54 160.942 175.934 158.661 175.934 155.965V138.858L172.345 138.093V133.164H187.944V138.093L184.332 138.858V155.965C184.332 157.369 184.579 158.533 185.073 159.458C185.568 160.368 186.285 161.046 187.227 161.492C188.184 161.939 189.34 162.162 190.696 162.162C192.099 162.162 193.272 161.939 194.213 161.492C195.17 161.046 195.888 160.368 196.366 159.458C196.861 158.533 197.108 157.369 197.108 155.965V138.858L193.519 138.093V133.164H209.119V138.093L205.506 138.858V155.965C205.506 158.613 204.884 160.878 203.64 162.76C202.396 164.626 200.665 166.054 198.448 167.043C196.247 168.016 193.679 168.502 190.744 168.502ZM210.53 168V163.095L214.143 162.33V138.858L210.53 138.093V133.164H214.143H222.541H226.943V138.093L222.541 138.858V161.564H230.819L231.011 156.707H237.423V168H210.53ZM238.404 168V163.095L240.844 162.736L251.228 133.164H260.32L270.728 162.736L273.168 163.095V168H260.152V163.095L262.425 162.665L261.373 158.884H250.175L249.17 162.665L251.443 163.095V168H238.404ZM251.946 152.999H259.578L256.181 142.447L255.798 141.227H255.654L255.248 142.567L251.946 152.999ZM274.699 168V163.095L278.312 162.33V138.858L274.699 138.093V133.14H291.83C294.59 133.14 296.982 133.579 299.008 134.456C301.034 135.333 302.597 136.585 303.697 138.212C304.798 139.823 305.348 141.737 305.348 143.955C305.348 145.996 304.79 147.894 303.673 149.649C302.573 151.403 301.057 152.815 299.127 153.884C297.197 154.937 294.996 155.455 292.524 155.439L286.71 155.367V162.33L290.323 163.095V168H274.699ZM296.759 168L292.069 154.41L299.367 151.922L303.602 162.282L306.903 163.119V168H296.759ZM286.71 148.931H291.926C293.553 148.931 294.805 148.556 295.682 147.807C296.559 147.041 296.998 145.94 296.998 144.505C296.998 143.021 296.551 141.833 295.658 140.94C294.765 140.031 293.489 139.576 291.83 139.576H286.71V148.931Z" fill="white"/>
</g>
<g filter="url(#filter2_d_132_4)">
<path d="M71.938 102V98.9854L75.8379 98.3154V70.8726L71.938 70.2026V67.1641H98.1367V75.5381H94.3564L93.8301 70.8247H80.5513V82.8833H93.3037V86.5918H80.5513V98.3154L84.4512 98.9854V102H71.938ZM96.4619 102V98.9854L99.0459 98.6265L111.224 67.1641H115.268L127.23 98.6265L129.791 98.9854V102H119.79V98.9854L122.421 98.5308L120.125 92.1187H106.176L103.807 98.5308L106.439 98.9854V102H96.4619ZM107.635 88.1709H118.689L113.569 74.0068L113.282 73.2173H113.138L112.851 74.0068L107.635 88.1709ZM133.427 102V98.9854L137.327 98.3154V70.8726L133.427 70.2026V67.188H148.955C151.491 67.188 153.629 67.5708 155.367 68.3364C157.122 69.0861 158.454 70.1787 159.363 71.6143C160.272 73.0498 160.727 74.8044 160.727 76.8779C160.727 78.9196 160.28 80.6343 159.387 82.022C158.509 83.4097 157.257 84.4624 155.63 85.1802C154.003 85.882 152.073 86.2568 149.84 86.3047L142.041 86.4482V98.3154L145.94 98.9854V102H133.427ZM156.42 102L148.668 84.606L153.381 84.5581L159.817 98.4829L162.234 98.9136V102H156.42ZM142.041 82.7397H148.477C151.108 82.7397 153.022 82.2373 154.219 81.2324C155.415 80.2275 156.013 78.7601 156.013 76.8301C156.013 74.9958 155.439 73.5443 154.291 72.4756C153.142 71.4069 151.364 70.8726 148.955 70.8726H142.041V82.7397ZM166.899 102V98.9854L170.799 98.3154V70.8726L166.899 70.2026V67.1641H170.799H177.092L188.313 93.6021H188.457L199.319 67.1641H209.822V70.2026L205.922 70.8726V98.3154L209.822 98.9854V102H197.309V98.9854L201.424 98.3154V88.2188V73.6001L201.305 73.5762L189.988 100.756H186.854L175.154 73.624L175.034 73.6479L175.202 88.2188V98.3154L179.413 98.9854V102H166.899ZM213.746 102V98.9854L216.33 98.6265L228.508 67.1641H232.552L244.515 98.6265L247.075 98.9854V102H237.074V98.9854L239.706 98.5308L237.409 92.1187H223.46L221.091 98.5308L223.723 98.9854V102H213.746ZM224.919 88.1709H235.973L230.853 74.0068L230.566 73.2173H230.422L230.135 74.0068L224.919 88.1709ZM227.599 64.1494L232.001 57.6416H237.504L237.552 57.7852L231.116 64.1494H227.814H227.599ZM264.78 102.502C261.287 102.502 258.368 101.737 256.023 100.206C253.694 98.6743 251.94 96.5768 250.759 93.9131C249.595 91.2493 249.013 88.2267 249.013 84.8452V84.3428C249.013 80.9294 249.627 77.8988 250.855 75.251C252.083 72.5872 253.846 70.4897 256.143 68.9585C258.439 67.4272 261.183 66.6616 264.373 66.6616C266.622 66.6616 268.68 67.0125 270.546 67.7144C272.412 68.4162 273.959 69.3094 275.188 70.394V77.9067H271.431L270.929 72.4038C270.418 72.005 269.828 71.6701 269.158 71.3989C268.504 71.1278 267.771 70.9204 266.957 70.7769C266.16 70.6333 265.29 70.5615 264.349 70.5615C262.068 70.5615 260.138 71.1517 258.559 72.332C256.98 73.4964 255.784 75.1074 254.97 77.165C254.157 79.2227 253.75 81.5993 253.75 84.2949V84.8452C253.75 87.7642 254.181 90.2604 255.042 92.334C255.919 94.3916 257.187 95.9627 258.846 97.0474C260.521 98.132 262.555 98.6743 264.947 98.6743C266.064 98.6743 267.156 98.5387 268.225 98.2676C269.294 97.9964 270.179 97.6455 270.881 97.2148L271.407 92.3579H275.092V99.9185C273.784 100.732 272.221 101.37 270.402 101.833C268.584 102.279 266.71 102.502 264.78 102.502ZM279.901 102V98.9854L283.801 98.3154V70.8726L279.901 70.2026V67.1641H292.414V70.2026L288.514 70.8726V98.3154L292.414 98.9854V102H279.901ZM296.051 102V98.9854L298.635 98.6265L310.813 67.1641H314.856L326.819 98.6265L329.379 98.9854V102H319.378V98.9854L322.01 98.5308L319.713 92.1187H305.765L303.396 98.5308L306.028 98.9854V102H296.051ZM307.224 88.1709H318.278L313.158 74.0068L312.871 73.2173H312.727L312.44 74.0068L307.224 88.1709Z" fill="white"/>
</g>
<path d="M135 243.772C135 226.777 148.806 213 165.836 213H239.164C256.194 213 270 226.777 270 243.772V317.228C270 334.223 256.194 348 239.164 348H165.836C148.806 348 135 334.223 135 317.228V243.772Z" fill="#239B10"/>
<path d="M189.761 230.522C197.14 224.383 207.86 224.383 215.239 230.522L256.288 264.674C265.827 272.611 265.827 287.235 256.288 295.172L215.239 329.324C207.86 335.463 197.14 335.463 189.761 329.324L148.712 295.172C139.173 287.235 139.173 272.611 148.712 264.675L189.761 230.522Z" fill="#F3B741"/>
<path d="M236.538 280.5C236.538 299.299 221.299 314.538 202.5 314.538C183.701 314.538 168.462 299.299 168.462 280.5C168.462 261.701 183.701 246.462 202.5 246.462C221.299 246.462 236.538 261.701 236.538 280.5Z" fill="#1379C2"/>
<g filter="url(#filter3_d_132_4)">
<path d="M137 241C137 226.641 148.641 215 163 215H242C256.359 215 268 226.641 268 241V320C268 334.359 256.359 346 242 346H163C148.641 346 137 334.359 137 320V241Z" stroke="white" stroke-width="4" shape-rendering="crispEdges"/>
</g>
<path d="M169 284.077C169 286.796 171.204 289 173.923 289H176.894C177.593 289 178.289 288.907 178.964 288.724L192.609 285.014C197.486 283.688 202.598 283.472 207.57 284.381L229.242 288.345C231.36 288.732 233.477 287.661 234.42 285.725C235.751 282.992 234.237 279.724 231.291 278.973L206.872 272.748C202.388 271.604 197.677 271.712 193.25 273.057L172.491 279.367C170.417 279.998 169 281.91 169 284.077Z" fill="#0B5082" fill-opacity="0.7"/>
<defs>
<filter id="filter0_d_132_4" x="0" y="0" width="406" height="429" filterUnits="userSpaceOnUse" color-interpolation-filters="sRGB">
<feFlood flood-opacity="0" result="BackgroundImageFix"/>
<feColorMatrix in="SourceAlpha" type="matrix" values="0 0 0 0 0 0 0 0 0 0 0 0 0 0 0 0 0 0 127 0" result="hardAlpha"/>
<feOffset dy="10"/>
<feGaussianBlur stdDeviation="20"/>
<feComposite in2="hardAlpha" operator="out"/>
<feColorMatrix type="matrix" values="0 0 0 0 0 0 0 0 0 0 0 0 0 0 0 0 0 0 0.5 0"/>
<feBlend mode="normal" in2="BackgroundImageFix" result="effect1_dropShadow_132_4"/>
<feBlend mode="normal" in="SourceGraphic" in2="effect1_dropShadow_132_4" result="shape"/>
</filter>
<filter id="filter1_d_132_4" x="72.957" y="132.662" width="247.946" height="46.8408" filterUnits="userSpaceOnUse" color-interpolation-filters="sRGB">
<feFlood flood-opacity="0" result="BackgroundImageFix"/>
<feColorMatrix in="SourceAlpha" type="matrix" values="0 0 0 0 0 0 0 0 0 0 0 0 0 0 0 0 0 0 127 0" result="hardAlpha"/>
<feOffset dx="10" dy="7"/>
<feGaussianBlur stdDeviation="2"/>
<feComposite in2="hardAlpha" operator="out"/>
<feColorMatrix type="matrix" values="0 0 0 0 0 0 0 0 0 0 0 0 0 0 0 0 0 0 0.25 0"/>
<feBlend mode="normal" in2="BackgroundImageFix" result="effect1_dropShadow_132_4"/>
<feBlend mode="normal" in="SourceGraphic" in2="effect1_dropShadow_132_4" result="shape"/>
</filter>
<filter id="filter2_d_132_4" x="71.938" y="57.6416" width="271.441" height="53.8608" filterUnits="userSpaceOnUse" color-interpolation-filters="sRGB">
<feFlood flood-opacity="0" result="BackgroundImageFix"/>
<feColorMatrix in="SourceAlpha" type="matrix" values="0 0 0 0 0 0 0 0 0 0 0 0 0 0 0 0 0 0 127 0" result="hardAlpha"/>
<feOffset dx="10" dy="5"/>
<feGaussianBlur stdDeviation="2"/>
<feComposite in2="hardAlpha" operator="out"/>
<feColorMatrix type="matrix" values="0 0 0 0 0 0 0 0 0 0 0 0 0 0 0 0 0 0 0.25 0"/>
<feBlend mode="normal" in2="BackgroundImageFix" result="effect1_dropShadow_132_4"/>
<feBlend mode="normal" in="SourceGraphic" in2="effect1_dropShadow_132_4" result="shape"/>
</filter>
<filter id="filter3_d_132_4" x="135" y="213" width="149" height="145" filterUnits="userSpaceOnUse" color-interpolation-filters="sRGB">
<feFlood flood-opacity="0" result="BackgroundImageFix"/>
<feColorMatrix in="SourceAlpha" type="matrix" values="0 0 0 0 0 0 0 0 0 0 0 0 0 0 0 0 0 0 127 0" result="hardAlpha"/>
<feOffset dx="10" dy="6"/>
<feGaussianBlur stdDeviation="2"/>
<feComposite in2="hardAlpha" operator="out"/>
<feColorMatrix type="matrix" values="0 0 0 0 0 0 0 0 0 0 0 0 0 0 0 0 0 0 0.25 0"/>
<feBlend mode="normal" in2="BackgroundImageFix" result="effect1_dropShadow_132_4"/>
<feBlend mode="normal" in="SourceGraphic" in2="effect1_dropShadow_132_4" result="shape"/>
</filter>
</defs>
</svg>
